<?xml version="1.0" encoding="UTF-8" standalone="no"?>
<!-- Created with Inkscape (http://www.inkscape.org/) -->

<svg
   width="24"
   height="24"
   viewBox="0 0 24 24"
   version="1.1"
   id="svg1"
   xmlns="http://www.w3.org/2000/svg"
   xmlns:svg="http://www.w3.org/2000/svg">
  <defs
     id="defs1" />
  <g
     id="layer1">
    <path
       id="rect1"
       style="fill:#000000;stroke-width:0;paint-order:stroke fill markers"
       d="m 3.8733817,0.498105 c -1.3427988,0 -2.4245957,1.0817969 -2.4245957,2.4245957 V 21.079359 c 0,1.342799 1.0817969,2.422536 2.4245957,2.422536 h 3.6235037 c 1.3427988,0 2.4245956,-1.079737 2.4245956,-2.422536 V 2.9227007 c 0,-1.3427988 -1.0817968,-2.4245957 -2.4245956,-2.4245957 z m 12.6297343,0 c -1.342799,0 -2.422537,1.0817969 -2.422537,2.4245957 V 21.079359 c 10e-7,1.342799 1.079738,2.422536 2.422537,2.422536 h 3.625563 c 1.342798,0 2.422535,-1.079737 2.422535,-2.422536 V 2.9227007 c 0,-1.3427988 -1.079737,-2.4245957 -2.422535,-2.4245957 z" />
  </g>
</svg>
